<?xml version="1.0" standalone="no"?>
<!DOCTYPE svg PUBLIC "-//W3C//DTD SVG 20010904//EN"
 "http://www.w3.org/TR/2001/REC-SVG-20010904/DTD/svg10.dtd">
<svg version="1.0" xmlns="http://www.w3.org/2000/svg"
 width="512.000000pt" height="512.000000pt" viewBox="0 0 512.000000 512.000000"
 preserveAspectRatio="xMidYMid meet">
<metadata>
Created by potrace 1.15, written by Peter Selinger 2001-2017
</metadata>
<g transform="translate(0.000000,512.000000) scale(0.100000,-0.100000)"
fill="#000000" stroke="none">
<path d="M2402 4655 c-205 -49 -388 -221 -453 -425 -30 -91 -36 -252 -15 -345
43 -180 174 -347 336 -424 195 -94 388 -94 580 0 67 33 102 59 165 123 120
121 173 241 182 412 9 167 -31 298 -132 432 -81 108 -231 203 -363 231 -70 15
-233 13 -300 -4z"/>
<path d="M1199 3787 c-118 -40 -197 -111 -251 -223 -125 -264 32 -564 321
-615 208 -37 414 89 485 297 23 68 21 196 -4 270 -78 228 -323 349 -551 271z"/>
<path d="M3649 3791 c-262 -84 -380 -393 -243 -635 36 -63 112 -134 179 -167
268 -131 584 34 626 326 23 163 -53 335 -188 424 -102 68 -257 89 -374 52z"/>
<path d="M429 3280 c-98 -17 -182 -81 -222 -169 -30 -66 -30 -179 1 -242 51
-105 134 -160 255 -167 72 -4 82 -2 142 27 75 37 117 83 146 161 62 163 -42
357 -206 385 -22 4 -47 8 -55 10 -8 1 -36 -1 -61 -5z"/>
<path d="M4579 3276 c-130 -28 -217 -130 -226 -266 -9 -122 50 -225 159 -279
97 -49 213 -41 304 20 53 37 103 115 115 184 39 211 -142 386 -352 341z"/>
<path d="M2386 3215 c-85 -16 -207 -56 -271 -87 -141 -70 -304 -214 -388 -341
-53 -80 -111 -207 -136 -297 -37 -131 -42 -283 -39 -1185 l3 -860 1003 -3
1003 -2 -3 982 -3 983 -23 80 c-102 358 -380 628 -737 716 -108 27 -304 34
-409 14z"/>
<path d="M1164 2760 c-232 -60 -409 -229 -488 -463 -30 -88 -36 -226 -36 -844
l0 -613 385 0 385 0 0 745 c0 695 1 751 19 842 21 103 42 170 85 266 19 42 23
59 14 61 -103 32 -258 34 -364 6z"/>
<path d="M3635 2765 c-57 -14 -56 -11 -15 -106 16 -36 42 -110 57 -165 l28
-99 3 -777 3 -778 385 0 385 0 -4 678 c-4 725 -3 710 -56 842 -78 192 -259
347 -467 400 -88 23 -238 25 -319 5z"/>
<path d="M350 2522 c-84 -22 -152 -63 -218 -129 -56 -57 -83 -104 -113 -192
-18 -50 -19 -91 -19 -538 l0 -483 250 0 250 0 0 503 c0 567 2 589 79 753 l39
82 -44 11 c-61 16 -148 13 -224 -7z"/>
<path d="M4539 2528 l-37 -10 39 -82 c77 -164 79 -186 79 -753 l0 -503 250 0
250 0 0 483 c0 526 1 518 -59 635 -33 64 -129 155 -202 191 -99 48 -228 64
-320 39z"/>
</g>
</svg>
